%TF.GenerationSoftware,KiCad,Pcbnew,9.0.0*%
%TF.CreationDate,2025-11-30T21:29:19+05:30*%
%TF.ProjectId,multi_cell_voltage_regulator,6d756c74-695f-4636-956c-6c5f766f6c74,rev?*%
%TF.SameCoordinates,Original*%
%TF.FileFunction,Plated,1,2,PTH,Drill*%
%TF.FilePolarity,Positive*%
%FSLAX46Y46*%
G04 Gerber Fmt 4.6, Leading zero omitted, Abs format (unit mm)*
G04 Created by KiCad (PCBNEW 9.0.0) date 2025-11-30 21:29:19*
%MOMM*%
%LPD*%
G01*
G04 APERTURE LIST*
%TA.AperFunction,ComponentDrill*%
%ADD10C,0.800000*%
%TD*%
%TA.AperFunction,ComponentDrill*%
%ADD11C,1.000000*%
%TD*%
G04 APERTURE END LIST*
D10*
%TO.C,R3*%
X120920000Y-90000000D03*
%TO.C,R4*%
X120920000Y-95000000D03*
%TO.C,R1*%
X121420000Y-70000000D03*
%TO.C,R3*%
X131080000Y-90000000D03*
%TO.C,R4*%
X131080000Y-95000000D03*
%TO.C,R1*%
X131580000Y-70000000D03*
%TO.C,R14*%
X135840000Y-70000000D03*
%TO.C,R5*%
X135840000Y-92000000D03*
%TO.C,R13*%
X135920000Y-75500000D03*
%TO.C,R2*%
X135920000Y-81000000D03*
%TO.C,R6*%
X135920000Y-86500000D03*
%TO.C,R14*%
X146000000Y-70000000D03*
%TO.C,R5*%
X146000000Y-92000000D03*
%TO.C,R13*%
X146080000Y-75500000D03*
%TO.C,R2*%
X146080000Y-81000000D03*
%TO.C,R6*%
X146080000Y-86500000D03*
%TO.C,R7*%
X152420000Y-75500000D03*
%TO.C,R11*%
X152420000Y-81000000D03*
%TO.C,R10*%
X152420000Y-86500000D03*
%TO.C,R8*%
X152420000Y-92000000D03*
%TO.C,R7*%
X162580000Y-75500000D03*
%TO.C,R11*%
X162580000Y-81000000D03*
%TO.C,R10*%
X162580000Y-86500000D03*
%TO.C,R8*%
X162580000Y-92000000D03*
%TO.C,R12*%
X174420000Y-86500000D03*
%TO.C,R9*%
X174420000Y-91500000D03*
%TO.C,R12*%
X184580000Y-86500000D03*
%TO.C,R9*%
X184580000Y-91500000D03*
D11*
%TO.C,J4*%
X121460000Y-65000000D03*
X124000000Y-65000000D03*
X126540000Y-65000000D03*
X129080000Y-65000000D03*
X131620000Y-65000000D03*
%TO.C,J5*%
X135880000Y-98500000D03*
X138420000Y-98500000D03*
X140960000Y-98500000D03*
%TO.C,J1*%
X143420000Y-64500000D03*
%TO.C,J5*%
X143500000Y-98500000D03*
%TO.C,J1*%
X145960000Y-64500000D03*
%TO.C,J5*%
X146040000Y-98500000D03*
%TO.C,J1*%
X148500000Y-64500000D03*
%TO.C,J2*%
X161975000Y-64500000D03*
X164515000Y-64500000D03*
X167055000Y-64500000D03*
%TO.C,J3*%
X176920000Y-64500000D03*
X179460000Y-64500000D03*
X182000000Y-64500000D03*
M02*
